<?xml version="1.0" encoding="UTF-8"?>
<!DOCTYPE svg PUBLIC "-//W3C//DTD SVG 1.1//EN" "http://www.w3.org/Graphics/SVG/1.1/DTD/svg11.dtd">

<svg xmlns="http://www.w3.org/2000/svg" xml:space="preserve" width="210mm" height="297mm" version="1.1" style="shape-rendering:geometricPrecision; text-rendering:geometricPrecision; image-rendering:optimizeQuality; fill-rule:evenodd; clip-rule:evenodd"
viewBox="0 0 21000 29700"
 xmlns:xlink="http://www.w3.org/1999/xlink"
 xmlns:xodm="http://www.corel.com/coreldraw/odm/2003">
 <defs>
  <style type="text/css">
   <![CDATA[
    .fil1 {fill:#00AFEF}
    .fil0 {fill:#3E4095;fill-rule:nonzero}
   ]]>
  </style>
 </defs>
 <g id="Camada_x0020_1">
  <metadata id="CorelCorpID_0Corel-Layer"/>
  <path class="fil0" d="M10409.16 10101.06c-902.31,0 -1633.87,731.51 -1633.87,1633.81 0,902.34 731.56,1633.84 1633.87,1633.84 902.3,0 1633.86,-731.5 1633.86,-1633.84 0,-902.3 -731.56,-1633.81 -1633.86,-1633.81z"/>
  <path class="fil0" d="M10409.16 13520.49c-986.21,0 -1785.7,-799.36 -1785.7,-1785.62 0,-986.23 799.49,-1785.74 1785.7,-1785.74 986.2,0 1785.7,799.51 1785.7,1785.74 0,986.26 -799.5,1785.62 -1785.7,1785.62zm3765.98 -562.04l-1689.65 -967.08c0.44,-3.51 0.82,-7.22 1.22,-10.83 218.44,-45.51 1177.85,-245.67 1177.85,-245.67l-1177.85 -245.76c-0.4,-3.62 -0.78,-7.23 -1.22,-10.84 342.03,-195.78 1689.65,-967.08 1689.65,-967.08l-1935.26 210.74c-1.78,-3.13 -3.59,-6.36 -5.36,-9.59 150.07,-165.36 808.31,-891.02 808.31,-891.02l-1097.51 493.7c-2.41,-2.62 -4.85,-5.24 -7.29,-7.83 161.49,-359.18 798.62,-1775.81 798.62,-1775.81l-1441.69 1307.87c-3.35,-1.5 -6.68,-3.11 -10.07,-4.61 24.21,-222.28 130.25,-1195.84 130.25,-1195.84l-597.58 1044.04c-3.59,-0.74 -7.19,-1.37 -10.8,-2.11 -80.52,-385.88 -397.6,-1905.72 -397.6,-1905.72l-397.58 1905.72c-3.63,0.74 -7.24,1.37 -10.82,2.11 -111.01,-193.93 -597.59,-1044.04 -597.59,-1044.04l130.25 1195.84c-3.38,1.5 -6.71,3.11 -10.07,4.61 -292.07,-264.94 -1441.69,-1307.87 -1441.69,-1307.87l798.63 1775.81c-2.44,2.59 -4.88,5.21 -7.3,7.83 -203.29,-91.5 -1097.5,-493.7 -1097.5,-493.7l808.31 891.02c-1.78,3.23 -3.59,6.46 -5.37,9.59 -391.9,-42.67 -1935.26,-210.74 -1935.26,-210.74l1689.65 967.08c-0.43,3.61 -0.82,7.22 -1.22,10.84 -218.44,45.63 -1177.84,245.76 -1177.84,245.76l1177.84 245.67c0.4,3.61 0.79,7.32 1.22,10.83 -342.01,195.79 -1689.65,967.08 -1689.65,967.08l1935.26 -210.73c1.78,3.23 3.59,6.48 5.37,9.58 -150.07,165.46 -808.31,891 -808.31,891l1097.5 -493.55c2.42,2.62 4.86,5.24 7.3,7.83 -161.49,359.16 -798.63,1775.8 -798.63,1775.8l1441.69 -1307.98c3.36,1.63 6.69,3.23 10.07,4.73 -24.2,222.28 -130.25,1195.84 -130.25,1195.84l597.59 -1044.04c3.58,0.61 7.21,1.37 10.82,1.99 80.49,385.87 397.58,1905.71 397.58,1905.71l397.6 -1905.71c3.61,-0.62 7.21,-1.38 10.8,-1.99 111,193.93 597.58,1044.04 597.58,1044.04l-130.25 -1195.84c3.39,-1.5 6.72,-3.1 10.07,-4.73 292.07,265.07 1441.69,1307.98 1441.69,1307.98l-798.62 -1775.8c2.44,-2.59 4.88,-5.21 7.29,-7.83 203.29,91.37 1097.51,493.55 1097.51,493.55l-808.31 -891c1.77,-3.1 3.58,-6.35 5.36,-9.58 391.9,42.64 1935.26,210.73 1935.26,210.73z"/>
  <g id="_2552943590288">
   <path class="fil1" d="M10192.62 10563.02c4.42,46.67 -9.91,42.26 -56.02,98.61 -57.1,69.81 -116.33,182.6 -148.36,265.37 -97.23,251.25 -88.99,497.4 6.4,746.08 44.46,115.91 119.19,227.73 202.05,315.39 14.64,15.49 25.53,27.28 41.36,40.44 17.71,14.73 26.06,26.48 44.86,41.87 59.92,49.05 133.9,98.26 204.14,131.95 149.62,71.76 288.14,103.44 455.05,105.57 167.45,2.14 342.83,-52.04 488.02,-128.08 17.2,-9 101.7,-65.22 112.16,-66.21 27.86,-2.64 52.8,21.15 47.44,48.24 -8.02,40.52 -86.96,154.2 -111.57,193.28 -62.46,99.21 -218.39,238.74 -319.46,301.55 -136.12,84.6 -310.05,157.27 -480.09,173.38 -126.38,11.96 -216.89,19.9 -342.74,-3.93 -78.39,-14.85 -146.68,-28.76 -215.71,-55.78 -34.1,-13.35 -63.87,-24.29 -97.54,-40.34 -220.98,-105.31 -398.51,-262.91 -522.88,-475.85 -204.01,-349.31 -210.67,-755.82 -39.5,-1119 14.56,-30.91 27.84,-51.38 44,-80.49 26.97,-48.57 67.67,-106.16 102.88,-148.7 10.03,-12.13 17.15,-21.83 27.48,-33.38 94.75,-105.88 203.26,-188.11 327.4,-257.57 27.75,-15.53 223.59,-126.8 230.63,-52.4z"/>
   <path class="fil1" d="M11353.13 11251.58c2.56,26.96 -40.2,69.43 -63.93,96.74 -22,25.31 -17.74,20.25 -13.06,64.01 2.9,27.11 10.25,60.91 -1.32,78.4 -24.79,37.48 -105.28,1.81 -137.39,40.66 -89.05,107.7 -76.65,116.19 -184.14,22.76 -25.31,-22 -20.25,-17.74 -64.01,-13.05 -85.8,9.18 -91.96,10.96 -98.62,-67.33 -3.2,-37.64 1.92,-52.9 -20.44,-71.39 -112.19,-92.76 -114.27,-77.6 -20.35,-186.82 36.98,-43.01 -15.08,-107.33 14.11,-142.62 28.88,-34.92 102.29,3.56 137.44,-40.64 90.05,-113.25 81.45,-106.2 184.63,-17.48 23.9,20.55 25.15,14.47 66.45,10.11 84.18,-8.87 87.06,-8.04 93.95,72.97 5.49,64.62 -5.59,44.89 67.52,104.92 15.52,12.74 36.78,23.57 39.16,48.76z"/>
  </g>
 </g>
</svg>
